#!OML:ASF H:\Male1\Project 1\Capture day 1\Session 1\Male1.ASF
:FULLY-SPECIFIED
:DEGREES
262
root 42.2134 14.9639 -8.60258 -349.329 12.0676 -349.27
lowerback 19.7 2.98257 2.20323
upperback 11.1121 4.44979 6.56408
thorax 0.651487 2.1757 4.91817
lowerneck 0.306956 -4.9271 -0.0369475
upperneck -4.9171 -6.48775 2.55531
head -1.48248 -3.29298 0.883258
rclavicle -5.08889e-014 1.59028e-014
rhumerus -29.4969 -48.3241 -38.8948
rradius 24.0804
rwrist -32.6999
rhand -16.3139 -6.36403
rfingers 7.12502
rthumb 9.89734 -36.1114
lclavicle -5.08889e-014 1.59028e-014
lhumerus -22.0744 38.7745 -6.42589
lradius 28.7443
lwrist 2.80875
lhand -23.7292 13.0796
lfingers 7.12502
lthumb 2.73893 43.0418
rfemur -13.2351 11.8534 26.1155
rtibia 58.6414
rfoot -12.8127 -2.70222
rtoes -17.2124
lfemur -28.2755 -16.7754 -16.3173
ltibia 36.6246
lfoot -14.6372 16.3788
ltoes -25.5157
263
root 42.4388 14.8933 -8.29959 -350.206 9.38732 -349.042
lowerback 19.9725 3.0358 1.51033
upperback 11.1839 4.38658 6.32103
thorax 0.56403 2.1117 5.0514
lowerneck 0.434674 -4.9628 -0.0596007
upperneck -4.72424 -6.54207 2.4647
head -1.44464 -3.31737 0.859241
rclavicle 3.49861e-014 3.81667e-014
rhumerus -29.058 -47.1101 -40.0126
rradius 24.7242
rwrist -34.326
rhand -16.2238 -6.80585
rfingers 7.12502
rthumb 9.98424 -36.5491
lclavicle 3.49861e-014 3.81667e-014
lhumerus -21.4543 37.9383 -6.90275
lradius 28.7926
lwrist 3.99279
lhand -25.5567 15.1811
lfingers 7.12502
lthumb 0.973908 45.1586
rfemur -15.2125 11.07 25.0104
rtibia 64.1554
rfoot -10.9893 -3.46682
rtoes -20.1138
lfemur -25.6812 -16.2419 -17.8965
ltibia 36.0366
lfoot -15.8093 18.0601
ltoes -24.8685
264
root 42.6584 14.7958 -7.9977 -351.096 6.83823 -348.74
lowerback 20.2393 3.04699 0.810293
upperback 11.2043 4.26807 6.09709
thorax 0.429101 2.0205 5.22025
lowerneck 0.509709 -5.02845 -0.10202
upperneck -4.54933 -6.63823 2.34089
head -1.40342 -3.36184 0.827469
rclavicle -1.59028e-014 2.54444e-014
rhumerus -28.7948 -45.7425 -40.9248
rradius 25.4363
rwrist -36.0507
rhand -16.2775 -7.24505
rfingers 7.12502
rthumb 9.93244 -36.9907
lclavicle -1.59028e-014 2.54444e-014
lhumerus -20.7461 36.8807 -7.14407
lradius 29.1383
lwrist 5.75746
lhand -27.6714 16.9523
lfingers 7.12502
lthumb -1.06854 46.9293
rfemur -17.6579 10.0396 23.9673
rtibia 69.7297
rfoot -10.1947 -5.10696
rtoes -23.4853
lfemur -23.2063 -15.0131 -19.7615
ltibia 36.503
lfoot -17.6976 19.4462
ltoes -24.5439
265
root 42.8681 14.6826 -7.69613 -351.84 4.40131 -348.313
lowerback 20.4157 3.05574 0.0645706
upperback 11.1829 4.13498 5.86907
thorax 0.295974 1.92172 5.41778
lowerneck 0.460503 -5.14543 -0.120012
upperneck -4.46349 -6.8008 2.24976
head -1.3681 -3.44085 0.800529
rclavicle 7.95139e-015 -2.8625e-014
rhumerus -28.63 -44.5531 -41.602
rradius 26.029
rwrist -37.5119
rhand -16.3459 -7.5437
rfingers 7.12502
rthumb 9.86648 -37.2925
lclavicle 7.95139e-015 -2.8625e-014
lhumerus -19.9384 35.8139 -7.04766
lradius 29.6893
lwrist 7.68558
lhand -30.0045 18.4066
lfingers 7.12502
lthumb -3.3218 48.3605
rfemur -20.7098 8.78107 22.8984
rtibia 75.0792
rfoot -10.3289 -7.16854
rtoes -26.9921
lfemur -21.1196 -13.3144 -21.7227
ltibia 37.6437
lfoot -19.9758 20.4058
ltoes -24.5336
266
root 43.0657 14.5623 -7.39458 -352.325 2.07645 -347.824
lowerback 20.4048 3.01656 -0.726183
upperback 11.1272 3.93005 5.69046
thorax 0.224923 1.78474 5.71786
lowerneck 0.361371 -5.25312 -0.252188
upperneck -4.53412 -6.94925 2.22885
head -1.36782 -3.51334 0.81546
rclavicle -7.4743e-014 -4.13472e-014
rhumerus -28.3029 -43.7047 -42.1642
rradius 26.3919
rwrist -38.3677
rhand -16.336 -7.71977
rfingers 7.12502
rthumb 9.87597 -37.4681
lclavicle -7.4743e-014 -4.13472e-014
lhumerus -19.3411 34.8417 -6.71281
lradius 30.3482
lwrist 9.30849
lhand -32.3284 19.7605
lfingers 7.12502
lthumb -5.56584 49.6674
rfemur -24.4633 7.34066 21.8747
rtibia 79.9267
rfoot -11.077 -9.06024
rtoes -30.1689
lfemur -19.579 -11.437 -23.5695
ltibia 39.1529
lfoot -22.4382 20.9181
ltoes -24.4807
267
root 43.2499 14.4428 -7.08981 -352.562 -0.147638 -347.297
lowerback 20.1914 2.91137 -1.49653
upperback 11.0714 3.64361 5.54352
thorax 0.270481 1.60611 6.06661
lowerneck 0.203604 -5.35034 -0.504062
upperneck -4.7506 -7.07964 2.33297
head -1.39527 -3.57782 0.889443
rclavicle 3.33958e-014 0
rhumerus -27.7263 -43.2737 -42.716
rradius 26.477
rwrist -38.5582
rhand -16.2523 -7.72575
rfingers 7.12502
rthumb 9.95679 -37.4703
lclavicle 3.33958e-014 0
lhumerus -18.9631 33.9859 -6.14458
lradius 30.979
lwrist 10.4193
lhand -34.5435 21.294
lfingers 7.12502
lthumb -7.7042 51.1336
rfemur -28.8213 5.79101 20.9891
rtibia 84.007
rfoot -12.1583 -10.389
rtoes -32.7991
lfemur -18.5206 -9.64513 -25.283
ltibia 40.7862
lfoot -24.7033 21.092
ltoes -24.6521
268
root 43.4206 14.3292 -6.7785 -352.627 -2.25354 -346.856
lowerback 19.8407 2.72685 -2.13377
upperback 11.0266 3.28238 5.48531
thorax 0.416477 1.39083 6.45552
lowerneck 0.0263313 -5.43294 -0.871886
upperneck -5.05006 -7.18802 2.51323
head -1.43904 -3.63093 1.00709
rclavicle 1.11319e-014 4.13472e-014
rhumerus -26.8642 -43.2181 -43.3035
rradius 26.3141
rwrist -38.1339
rhand -16.1124 -7.65565
rfingers 7.12502
rthumb 10.0918 -37.3937
lclavicle 1.11319e-014 4.13472e-014
lhumerus -18.8549 33.229 -5.31548
lradius 31.5276
lwrist 11.0191
lhand -36.6496 23.1028
lfingers 7.12502
lthumb -9.73657 52.8578
rfemur -33.5242 4.20067 20.4602
rtibia 87.0468
rfoot -13.5366 -10.8618
rtoes -34.6769
lfemur -17.7101 -8.13437 -26.8012
ltibia 42.3619
lfoot -26.8054 21.0755
ltoes -24.342
269
root 43.5781 14.2261 -6.45612 -352.633 -4.2392 -346.445
lowerback 19.4552 2.4771 -2.60295
upperback 10.9992 2.86872 5.45208
thorax 0.620705 1.15331 6.78435
lowerneck -0.129158 -5.52268 -1.23539
upperneck -5.36766 -7.30316 2.72733
head -1.49083 -3.68792 1.13632
rclavicle -3.02153e-014 -1.59028e-014
rhumerus -25.9223 -43.3144 -43.9601
rradius 26.1003
rwrist -37.441
rhand -15.9561 -7.59283
rfingers 7.12502
rthumb 10.2425 -37.3235
lclavicle -3.02153e-014 -1.59028e-014
lhumerus -18.8157 32.5307 -4.2252
lradius 31.8955
lwrist 11.286
lhand -38.5954 25.1802
lfingers 7.12502
lthumb -11.6135 54.8384
rfemur -38.2379 2.76081 20.3183
rtibia 88.8461
rfoot -15.2725 -10.4306
rtoes -34.2376
lfemur -16.836 -7.04538 -28.2706
ltibia 43.6836
lfoot -28.5951 21.2041
ltoes -24.1914
270
root 43.72 14.1455 -6.11509 -352.707 -6.09631 -346.12
lowerback 19.1507 2.18607 -2.86493
upperback 10.9996 2.43669 5.46985
thorax 0.829085 0.912378 7.04791
lowerneck -0.229859 -5.63131 -1.56257
upperneck -5.66095 -7.44328 2.92798
head -1.54516 -3.75764 1.25761
rclavicle 1.90833e-014 5.40694e-014
rhumerus -24.9921 -43.2578 -44.6832
rradius 25.9562
rwrist -36.8457
rhand -15.905 -7.51209
rfingers 7.12502
rthumb 10.2918 -37.2403
lclavicle 1.90833e-014 5.40694e-014
lhumerus -18.7878 31.951 -2.88991
lradius 32.1449
lwrist 11.3778
lhand -40.2938 27.3405
lfingers 7.12502
lthumb -13.251 56.8993
rfemur -42.5072 1.61876 20.6268
rtibia 89.1971
rfoot -17.3253 -9.22707
rtoes -31.1262
lfemur -15.6495 -6.43125 -29.6653
ltibia 44.6199
lfoot -29.962 21.4532
ltoes -23.9684
